<?xml version="1.0" encoding="UTF-8"?>
<svg id="_레이어_1" data-name="레이어_1" xmlns="http://www.w3.org/2000/svg" viewBox="0 0 40 40">
  <defs>
    <style>
      .cls-1 {
        fill: #fff;
      }

      .cls-2 {
        fill: #052b47;
      }

      .cls-3 {
        fill: #49b3e7;
      }
    </style>
  </defs>
  <rect class="cls-2" width="40" height="40" rx="4.37" ry="4.37"/>
  <path class="cls-1" d="M32.69,4.98c-7.27,1.25-14.5,2.71-21.7,4.35,1.17-.99,2.34-1.99,3.51-2.98.13-.11.22-.27.06-.39-.17-.13-.61-.09-.79-.08-.69.07-1.55.27-2.1.73-1.46,1.24-2.91,2.47-4.37,3.71-.15.09-.29.2-.39.33-.33.28-.66.56-.99.84-.13.11-.22.27-.06.39.17.13.61.09.79.08.39-.04.83-.13,1.24-.28.25-.02.49-.06.65-.09,5.09-1.2,10.21-2.29,15.35-3.29.22,3.79-.57,7.74-1.66,11.35-1.08,3.6-2.62,7.19-4.77,10.29-1.73,2.5-4.63,5.68-7.96,5.63-4.71-.08-3.16-5.74-1.87-8.38.3-.61-1.07-.56-1.31-.53-.64.08-1.49.36-1.8.98-1.63,3.33-2.61,8.48,2.24,9.38,3.99.74,8.27-1.45,11.06-4.15,3.23-3.12,5.34-7.43,6.83-11.61,1.53-4.25,2.58-9.02,2.36-13.57,1.74-.32,3.49-.64,5.24-.94.55-.09,1.68-.38,1.77-1.08.09-.68-.89-.77-1.36-.69Z"/>
  <path class="cls-3" d="M35.07,26.47c-.19-.69-1.16-.73-1.71-.59-1.91.5-3.81,1.03-5.71,1.59.6-1.14,1.08-2.34,1.42-3.58.11-.39.2-.79.28-1.19.07-.33.24-.83.18-1.16-.09-.48-.59-.5-1-.49-.7.03-1.49.28-1.99.79-.1.09-.14.2-.12.33,0,.02.02.05.02.07.03.09.1.16.19.21,0,.43-.21,1.03-.29,1.35-.14.58-.31,1.15-.5,1.71-.4,1.15-.92,2.27-1.55,3.31-.61,1.01-1.34,1.95-2.16,2.8-.39.41-.81.8-1.25,1.15-.24.19-.49.38-.75.56-.06.04-.13.09-.19.13-.32.09-.63.22-.92.4-.25.16-.38.32-.38.6.05.12.14.19.27.22,1.87.49,3.84-1.3,5.13-2.47.74-.67,1.4-1.43,2-2.22.05,0,.1,0,.15-.02.03,1.36.24,2.74.8,3.95.35.77.86,1.41,1.61,1.82,1.07.59,2.33.44,3.43.06.35-.12,1.21-.66.79-1.11-.33-.35-.98-.27-1.48-.13-.02,0-.04,0-.05,0-.01,0,0,0-.02,0,0,0,0,0-.02-.01-.3-.12-.48-.23-.7-.44-.45-.43-.71-.98-.91-1.57-.36-1.08-.54-2.24-.55-3.39,1.59-.46,3.19-.9,4.79-1.32.56-.15,1.37-.67,1.19-1.36Z"/>
</svg>